<svg width="40" height="41" viewBox="0 0 40 41" fill="none" xmlns="http://www.w3.org/2000/svg">
<path d="M36.8889 40.3436L22.8889 26.3436C21.7778 27.2325 20.5 27.9362 19.0556 28.4547C17.6111 28.9733 16.0741 29.2325 14.4444 29.2325C10.4074 29.2325 6.99074 27.8344 4.19444 25.0381C1.39815 22.2418 0 18.8251 0 14.7881C0 10.751 1.39815 7.33437 4.19444 4.53807C6.99074 1.74178 10.4074 0.343628 14.4444 0.343628C18.4815 0.343628 21.8981 1.74178 24.6944 4.53807C27.4907 7.33437 28.8889 10.751 28.8889 14.7881C28.8889 16.4177 28.6296 17.9547 28.1111 19.3992C27.5926 20.8436 26.8889 22.1214 26 23.2325L40 37.2325L36.8889 40.3436ZM14.4444 24.7881C17.2222 24.7881 19.5833 23.8159 21.5278 21.8714C23.4722 19.927 24.4444 17.5659 24.4444 14.7881C24.4444 12.0103 23.4722 9.64918 21.5278 7.70474C19.5833 5.76029 17.2222 4.78807 14.4444 4.78807C11.6667 4.78807 9.30556 5.76029 7.36111 7.70474C5.41667 9.64918 4.44444 12.0103 4.44444 14.7881C4.44444 17.5659 5.41667 19.927 7.36111 21.8714C9.30556 23.8159 11.6667 24.7881 14.4444 24.7881Z" fill="black"/>
</svg>
