<svg width="41" height="40" viewBox="0 0 41 40" fill="none" xmlns="http://www.w3.org/2000/svg">
<path d="M5.0835 40C3.7085 40 2.53141 39.6083 1.55225 38.825C0.573079 38.0417 0.0834961 37.1 0.0834961 36V12C0.0834961 10.9 0.573079 9.95833 1.55225 9.175C2.53141 8.39167 3.7085 8 5.0835 8H10.0835C10.0835 5.8 11.0627 3.91667 13.021 2.35C14.9793 0.783333 17.3335 0 20.0835 0C22.8335 0 25.1877 0.783333 27.146 2.35C29.1043 3.91667 30.0835 5.8 30.0835 8H35.0835C36.4585 8 37.6356 8.39167 38.6147 9.175C39.5939 9.95833 40.0835 10.9 40.0835 12V36C40.0835 37.1 39.5939 38.0417 38.6147 38.825C37.6356 39.6083 36.4585 40 35.0835 40H5.0835ZM5.0835 36H35.0835V12H30.0835V16C30.0835 16.5667 29.8439 17.0417 29.3647 17.425C28.8856 17.8083 28.2918 18 27.5835 18C26.8752 18 26.2814 17.8083 25.8022 17.425C25.3231 17.0417 25.0835 16.5667 25.0835 16V12H15.0835V16C15.0835 16.5667 14.8439 17.0417 14.3647 17.425C13.8856 17.8083 13.2918 18 12.5835 18C11.8752 18 11.2814 17.8083 10.8022 17.425C10.3231 17.0417 10.0835 16.5667 10.0835 16V12H5.0835V36ZM15.0835 8H25.0835C25.0835 6.9 24.5939 5.95833 23.6147 5.175C22.6356 4.39167 21.4585 4 20.0835 4C18.7085 4 17.5314 4.39167 16.5522 5.175C15.5731 5.95833 15.0835 6.9 15.0835 8Z" fill="black"/>
</svg>
