<svg width="41" height="41" viewBox="0 0 41 41" fill="none" xmlns="http://www.w3.org/2000/svg">
<path d="M20.0835 20.6873C17.3335 20.6873 14.9793 19.7082 13.021 17.7498C11.0627 15.7915 10.0835 13.4373 10.0835 10.6873C10.0835 7.93732 11.0627 5.58315 13.021 3.62482C14.9793 1.66648 17.3335 0.687317 20.0835 0.687317C22.8335 0.687317 25.1877 1.66648 27.146 3.62482C29.1043 5.58315 30.0835 7.93732 30.0835 10.6873C30.0835 13.4373 29.1043 15.7915 27.146 17.7498C25.1877 19.7082 22.8335 20.6873 20.0835 20.6873ZM0.0834961 40.6873V33.6873C0.0834961 32.2707 0.448079 30.9686 1.17725 29.7811C1.90641 28.5936 2.87516 27.6873 4.0835 27.0623C6.66683 25.7707 9.29183 24.8019 11.9585 24.1561C14.6252 23.5102 17.3335 23.1873 20.0835 23.1873C22.8335 23.1873 25.5418 23.5102 28.2085 24.1561C30.8752 24.8019 33.5002 25.7707 36.0835 27.0623C37.2918 27.6873 38.2606 28.5936 38.9897 29.7811C39.7189 30.9686 40.0835 32.2707 40.0835 33.6873V40.6873H0.0834961ZM5.0835 35.6873H35.0835V33.6873C35.0835 33.229 34.9689 32.8123 34.7397 32.4373C34.5106 32.0623 34.2085 31.7706 33.8335 31.5623C31.5835 30.4373 29.3127 29.5936 27.021 29.0311C24.7293 28.4686 22.4168 28.1873 20.0835 28.1873C17.7502 28.1873 15.4377 28.4686 13.146 29.0311C10.8543 29.5936 8.5835 30.4373 6.3335 31.5623C5.9585 31.7706 5.65641 32.0623 5.42725 32.4373C5.19808 32.8123 5.0835 33.229 5.0835 33.6873V35.6873ZM20.0835 15.6873C21.4585 15.6873 22.6356 15.1977 23.6147 14.2186C24.5939 13.2394 25.0835 12.0623 25.0835 10.6873C25.0835 9.31232 24.5939 8.13523 23.6147 7.15607C22.6356 6.1769 21.4585 5.68732 20.0835 5.68732C18.7085 5.68732 17.5314 6.1769 16.5522 7.15607C15.5731 8.13523 15.0835 9.31232 15.0835 10.6873C15.0835 12.0623 15.5731 13.2394 16.5522 14.2186C17.5314 15.1977 18.7085 15.6873 20.0835 15.6873Z" fill="black"/>
</svg>
